<?xml version="1.0" standalone="no"?>
<!DOCTYPE svg PUBLIC "-//W3C//DTD SVG 20010904//EN"
 "http://www.w3.org/TR/2001/REC-SVG-20010904/DTD/svg10.dtd">
<svg version="1.0" xmlns="http://www.w3.org/2000/svg"
 width="116.000000pt" height="94.000000pt" viewBox="0 0 116.000000 94.000000"
 preserveAspectRatio="xMidYMid meet">

<g transform="translate(0.000000,94.000000) scale(0.100000,-0.100000)"
stroke="#FFFFFF" stroke-width="94.000000pt" stroke-linecap="round" stroke-linejoin="round">
<path d="M421 859 c-41 -21 -94 -80 -106 -119 -4 -13 -21 -18 -75 -23 -81 -7
-122 -28 -153 -77 -21 -33 -22 -46 -22 -250 0 -241 4 -259 75 -303 34 -22 41
-22 440 -22 399 0 406 0 440 22 71 44 75 62 75 303 0 197 -2 218 -20 248 -31
52 -74 73 -163 79 l-78 6 -27 48 c-15 28 -44 60 -69 76 -38 26 -50 28 -157 31
-103 3 -121 0 -160 -19z m247 -258 c72 -37 112 -102 112 -181 0 -113 -87 -200
-200 -200 -214 0 -277 282 -85 383 42 23 127 21 173 -2z m260 -13 c7 -7 12
-24 12 -38 0 -33 -17 -50 -50 -50 -33 0 -50 17 -50 50 0 33 17 50 50 50 14 0
31 -5 38 -12z"/>
</g>
<g transform="translate(0.000000,94.000000) scale(0.100000,-0.100000)"
fill="#007EFF">
<path d="M421 859 c-41 -21 -94 -80 -106 -119 -4 -13 -21 -18 -75 -23 -81 -7
-122 -28 -153 -77 -21 -33 -22 -46 -22 -250 0 -241 4 -259 75 -303 34 -22 41
-22 440 -22 399 0 406 0 440 22 71 44 75 62 75 303 0 197 -2 218 -20 248 -31
52 -74 73 -163 79 l-78 6 -27 48 c-15 28 -44 60 -69 76 -38 26 -50 28 -157 31
-103 3 -121 0 -160 -19z m247 -258 c72 -37 112 -102 112 -181 0 -113 -87 -200
-200 -200 -214 0 -277 282 -85 383 42 23 127 21 173 -2z m260 -13 c7 -7 12
-24 12 -38 0 -33 -17 -50 -50 -50 -33 0 -50 17 -50 50 0 33 17 50 50 50 14 0
31 -5 38 -12z"/>
</g>
</svg>
